<svg xmlns="http://www.w3.org/2000/svg" width="227.547" height="204.823" viewBox="0 0 227.547 204.823">
  <path fill="#758592" id="Pfad_1" data-name="Pfad 1" d="M1135.528,301.634q7.677,21.7,11.055,51.693a375.535,375.535,0,0,1,2.354,42.684q0,17.711-1.535,33.062l-.1,1.434-1.126.409q-33.678,12.489-56.707,18.834A391.6,391.6,0,0,1,1039,460.191q-23.952,3.277-60.6,5.425l-1.024.1-.614-.818q-12.183-16.584-23.543-44.937a493.491,493.491,0,0,1-17.2-52q-5.835-20.881-10.646-43.094-2.663-12.18-3.787-18.424l-.2-1.434,1.433-.614a716.075,716.075,0,0,1,83.117-28.763,454.766,454.766,0,0,1,58.243-12.181,249.6,249.6,0,0,1,33.369-2.559,102.076,102.076,0,0,1,11.055.512l.717.1.307.308Q1125.8,274.1,1135.528,301.634Z" transform="translate(-921.39 -260.895)" />
</svg>